Coordinates
version=1
nRows=13
nColumns=36
inDegrees=yes

Units are S.I. units (second, meters, Newtons, ...)
If the header above contains a line with 'inDegrees', this indicates whether rotational values are in degrees (yes) or radians (no).

endheader
time	pelvis_tilt	pelvis_list	pelvis_rotation	pelvis_tx	pelvis_ty	pelvis_tz	hip_flexion_r	hip_adduction_r	hip_rotation_r	knee_angle_r	knee_angle_r_beta	ankle_angle_r	subtalar_angle_r	mtp_angle_r	hip_flexion_l	hip_adduction_l	hip_rotation_l	knee_angle_l	knee_angle_l_beta	ankle_angle_l	subtalar_angle_l	mtp_angle_l	lumbar_extension	lumbar_bending	lumbar_rotation	arm_flex_r	arm_add_r	arm_rot_r	elbow_flex_r	pro_sup_r	arm_flex_l	arm_add_l	arm_rot_l	elbow_flex_l	pro_sup_l
      1.93220340	     -4.65300779	      0.51375616	      2.62390347	      0.32995678	      0.95254798	     -0.04616189	      2.25592470	     -6.51499345	     -4.21889321	      3.80212583	      0.06635961	      3.64073638	     -8.66937323	     -7.49999964	      4.94268641	     -3.20249448	     -1.58341781	      3.72744191	      0.06505613	      1.75326904	     -4.47726400	     -7.49999964	      0.70540777	     -3.65595617	     -6.02428542	    150.70825689	    -12.14595529	     77.39500034	     11.74931322	     57.84385078	     60.27501841	     -5.12292297	      8.97001058	     23.89240110	     64.85878167
      1.94915250	     -4.55037109	      0.47901926	      2.63973233	      0.33008017	      0.95241956	     -0.04659769	      2.15254617	     -6.49993956	     -4.31739494	      3.87109906	      0.06756342	      3.73510623	     -8.54758222	     -7.49999965	      4.84483592	     -3.22766616	     -1.56164153	      3.78247213	      0.06601659	      1.83953024	     -4.56881582	     -7.49999965	      0.38879107	     -3.42391963	     -5.47055365	    151.99805816	    -12.16236057	     76.94471956	     11.83627218	     57.86736521	     61.17547676	     -4.51132613	      8.86176226	     23.18788545	     64.63331700
      1.96610170	     -4.69714748	      0.49854290	      2.65102138	      0.32998771	      0.95246774	     -0.04612692	      2.29211408	     -6.54828864	     -4.34147042	      3.90204246	      0.06810349	      3.81440862	     -8.37381564	     -7.49999969	      4.97923322	     -3.19292095	     -1.51624293	      3.77572876	      0.06589890	      1.83360220	     -4.54301278	     -7.49999969	      0.61040579	     -3.61757886	     -5.08926409	    152.76153172	    -12.71809337	     78.65880723	     12.23141604	     58.15250155	     62.32048304	     -4.24569526	     11.19934532	     21.42563305	     65.00003497
      1.98305080	     -4.74776764	      0.48874719	      2.65595092	      0.33033006	      0.95221980	     -0.04653142	      2.29212085	     -6.56409424	     -4.39396812	      3.88271334	      0.06776613	      3.76437945	     -8.37370845	     -7.49999971	      5.01083751	     -3.19286657	     -1.58109483	      3.79646522	      0.06626082	      1.85290580	     -4.51050431	     -7.49999971	      0.69740641	     -3.63457046	     -4.92725607	    153.61676671	    -12.82505662	     78.09847626	     12.57423099	     58.15747608	     62.53904671	     -4.06616816	     11.28266719	     21.73472046	     64.73303642
      2.00000000	     -4.80200789	      0.48112006	      2.64041318	      0.33018697	      0.95242756	     -0.04607071	      2.30554864	     -6.57857669	     -4.48335397	      3.84904974	      0.06717859	      3.73268226	     -8.26542747	     -7.49999972	      5.04631159	     -3.19472845	     -1.56787737	      3.78740572	      0.06610270	      1.81589655	     -4.53209573	     -7.49999972	      0.76471526	     -3.62251136	     -4.69205591	    154.80567841	    -12.73150790	     77.11606384	     13.38780005	     58.19826519	     62.81989173	     -3.78979702	     11.29333902	     22.00789369	     64.41218468
      2.01694910	     -4.94332303	      0.48837496	      2.65227855	      0.33042339	      0.95201897	     -0.04644871	      2.43559702	     -6.61047487	     -4.53589530	      3.85766097	      0.06732889	      3.76322803	     -8.21846037	     -7.49999974	      5.20782364	     -3.17161624	     -1.51575194	      3.81576966	      0.06659774	      1.72789417	     -4.63879677	     -7.49999974	      0.87712186	     -3.73422344	     -4.03852422	    156.25553748	    -13.06164255	     75.63727924	     13.79563400	     58.34946874	     63.59498454	     -2.99353120	     11.60443859	     21.11043201	     64.15033846
      2.03389830	     -4.98816781	      0.51894579	      2.70214421	      0.33042444	      0.95227627	     -0.04618649	      2.44589066	     -6.62749778	     -4.80451408	      3.78351948	      0.06603487	      3.58852928	     -8.28105820	     -7.49999975	      5.24552435	     -3.12527763	     -1.42059209	      3.81356996	      0.06655935	      1.74217777	     -4.60846309	     -7.49999975	      0.86038460	     -3.89244788	     -3.85769112	    157.42423752	    -13.36271851	     74.42328335	     13.84195716	     58.43184127	     63.93303108	     -2.79672563	     11.51436649	     21.48479496	     63.83160595
      2.05084750	     -5.15241458	      0.52890554	      2.64607204	      0.33076934	      0.95191672	     -0.04643364	      2.62306495	     -6.64842670	     -4.81613207	      3.78097334	      0.06599043	      3.51163689	     -8.26838006	     -7.49999976	      5.42745269	     -3.08971195	     -1.39817109	      3.87448652	      0.06762255	      1.72518665	     -4.69025062	     -7.49999976	      0.92982955	     -3.98124925	     -3.15823869	    158.98287366	    -13.34655815	     73.22190571	     13.09327100	     58.53426901	     64.57131555	     -2.15651183	     11.50003464	     20.83698089	     63.58370413
      2.06779660	     -5.23082956	      0.54843080	      2.64886238	      0.33060547	      0.95211009	     -0.04594980	      2.61145460	     -6.66173688	     -4.84475529	      3.61280997	      0.06305543	      3.46432290	     -8.21905009	     -7.49999977	      5.50908378	     -3.04767617	     -1.29020438	      3.87788844	      0.06768192	      1.71179462	     -4.69737656	     -7.49999977	      0.91728276	     -4.18159074	     -2.86885630	    160.00881027	    -13.54233204	     72.33697697	     12.81889545	     58.57093234	     64.97792810	     -1.88331027	     11.34651747	     20.58579741	     63.35868069
      2.08474580	     -5.42531856	      0.54120981	      2.61676300	      0.33095624	      0.95487301	     -0.04627677	      2.80103163	     -6.67269389	     -4.89647377	      3.56568788	      0.06223299	      3.37419175	     -8.07447859	     -7.49999979	      5.72098049	     -3.03940599	     -1.24059240	      3.90107905	      0.06808667	      1.60430617	     -4.75213455	     -7.49999979	      1.15520413	     -4.16292751	     -2.71339871	    160.78464388	    -13.24550128	     71.00477168	     11.95924578	     58.82822102	     65.25952526	     -1.72433856	     10.96798230	     19.81072165	     62.89270040
      2.10169490	     -5.50890486	      0.55566552	      2.63936139	      0.33084053	      0.95485183	     -0.04589777	      2.84872814	     -6.68892920	     -4.95543373	      3.48613556	      0.06084454	      3.34147078	     -7.92301380	     -7.49999980	      5.81598990	     -3.01615132	     -1.17090568	      3.89511997	      0.06798267	      1.54755168	     -4.79773490	     -7.49999980	      1.23185387	     -4.14166989	     -2.69707815	    161.66841225	    -12.93044399	     70.66575283	     11.69802652	     58.86593187	     65.25001805	     -1.78386659	     10.87777339	     19.59313561	     62.83915903
      2.11864410	     -5.43585005	      0.57805705	      2.71374628	      0.33096125	      0.95445704	     -0.04639940	      2.72359994	     -6.69581396	     -5.04605895	      3.40418902	      0.05941431	      3.32489746	     -7.78763097	     -7.49999981	      5.75050524	     -2.99490148	     -1.07172853	      3.89746343	      0.06802357	      1.59621248	     -4.77364814	     -7.49999981	      1.10244322	     -4.07489804	     -3.01493288	    162.83222944	    -12.58047245	     69.87124335	     12.31675371	     58.81852234	     64.98086642	     -2.10605006	     10.50498578	     19.96677391	     62.64863614
      2.13559320	     -5.62437607	      0.53875301	      2.67508924	      0.33090267	      0.95707942	     -0.04601650	      2.94744608	     -6.62043607	     -5.35820162	      3.33641825	      0.05823148	      3.03201591	     -7.64820287	     -7.49999982	      5.86707374	     -3.04697296	     -1.20734040	      3.75678932	      0.06556834	      1.43305646	     -4.79101075	     -7.49999982	      1.31275466	     -4.04410636	     -2.72569874	    163.88350051	    -12.23402273	     68.70584856	     11.95604953	     58.90101176	     64.92692654	     -1.72043365	      9.67376702	     19.94803989	     62.37027224
